<mxfile host="app.diagrams.net" agent="Mozilla/5.0 (X11; Ubuntu; Linux x86_64; rv:137.0) Gecko/20100101 Firefox/137.0" version="26.2.9">
  <diagram id="R2lEEEUBdFMjLlhIrx00" name="Page-1">
    <mxGraphModel dx="2286" dy="1104" grid="1" gridSize="10" guides="1" tooltips="1" connect="1" arrows="1" fold="1" page="1" pageScale="1" pageWidth="850" pageHeight="1100" math="0" shadow="0" extFonts="Permanent Marker^https://fonts.googleapis.com/css?family=Permanent+Marker">
      <root>
        <mxCell id="0" />
        <mxCell id="1" parent="0" />
        <mxCell id="Wj7mXiarQjOpk7K_wGuI-1" value="Product" style="rounded=0;whiteSpace=wrap;html=1;" vertex="1" parent="1">
          <mxGeometry x="460" y="660" width="200" height="40" as="geometry" />
        </mxCell>
        <mxCell id="Wj7mXiarQjOpk7K_wGuI-63" style="edgeStyle=none;curved=1;rounded=0;orthogonalLoop=1;jettySize=auto;html=1;exitX=1;exitY=0.5;exitDx=0;exitDy=0;entryX=0;entryY=0.5;entryDx=0;entryDy=0;fontSize=12;startSize=8;endSize=8;" edge="1" parent="1" source="Wj7mXiarQjOpk7K_wGuI-3" target="Wj7mXiarQjOpk7K_wGuI-36">
          <mxGeometry relative="1" as="geometry" />
        </mxCell>
        <mxCell id="Wj7mXiarQjOpk7K_wGuI-3" value="product_id" style="rounded=0;whiteSpace=wrap;html=1;" vertex="1" parent="1">
          <mxGeometry x="460" y="700" width="200" height="40" as="geometry" />
        </mxCell>
        <mxCell id="Wj7mXiarQjOpk7K_wGuI-4" value="name" style="rounded=0;whiteSpace=wrap;html=1;" vertex="1" parent="1">
          <mxGeometry x="460" y="740" width="200" height="40" as="geometry" />
        </mxCell>
        <mxCell id="Wj7mXiarQjOpk7K_wGuI-9" value="availablity" style="rounded=0;whiteSpace=wrap;html=1;" vertex="1" parent="1">
          <mxGeometry x="460" y="780" width="200" height="40" as="geometry" />
        </mxCell>
        <mxCell id="Wj7mXiarQjOpk7K_wGuI-10" value="offline_start_date" style="rounded=0;whiteSpace=wrap;html=1;" vertex="1" parent="1">
          <mxGeometry x="460" y="820" width="200" height="40" as="geometry" />
        </mxCell>
        <mxCell id="Wj7mXiarQjOpk7K_wGuI-11" value="online_start_date" style="rounded=0;whiteSpace=wrap;html=1;" vertex="1" parent="1">
          <mxGeometry x="460" y="860" width="200" height="40" as="geometry" />
        </mxCell>
        <mxCell id="Wj7mXiarQjOpk7K_wGuI-12" value="partner_availability" style="rounded=0;whiteSpace=wrap;html=1;" vertex="1" parent="1">
          <mxGeometry x="460" y="900" width="200" height="40" as="geometry" />
        </mxCell>
        <mxCell id="Wj7mXiarQjOpk7K_wGuI-13" value="Branch" style="rounded=0;whiteSpace=wrap;html=1;" vertex="1" parent="1">
          <mxGeometry x="790" y="670" width="200" height="40" as="geometry" />
        </mxCell>
        <mxCell id="Wj7mXiarQjOpk7K_wGuI-14" value="branch_id" style="rounded=0;whiteSpace=wrap;html=1;" vertex="1" parent="1">
          <mxGeometry x="790" y="710" width="200" height="40" as="geometry" />
        </mxCell>
        <mxCell id="Wj7mXiarQjOpk7K_wGuI-15" value="name" style="rounded=0;whiteSpace=wrap;html=1;" vertex="1" parent="1">
          <mxGeometry x="790" y="750" width="200" height="40" as="geometry" />
        </mxCell>
        <mxCell id="Wj7mXiarQjOpk7K_wGuI-16" value="working_hours" style="rounded=0;whiteSpace=wrap;html=1;" vertex="1" parent="1">
          <mxGeometry x="790" y="790" width="200" height="40" as="geometry" />
        </mxCell>
        <mxCell id="Wj7mXiarQjOpk7K_wGuI-17" value="price" style="rounded=0;whiteSpace=wrap;html=1;" vertex="1" parent="1">
          <mxGeometry x="460" y="940" width="200" height="40" as="geometry" />
        </mxCell>
        <mxCell id="Wj7mXiarQjOpk7K_wGuI-18" value="url" style="rounded=0;whiteSpace=wrap;html=1;" vertex="1" parent="1">
          <mxGeometry x="460" y="980" width="200" height="40" as="geometry" />
        </mxCell>
        <mxCell id="Wj7mXiarQjOpk7K_wGuI-21" value="geolocation" style="rounded=0;whiteSpace=wrap;html=1;" vertex="1" parent="1">
          <mxGeometry x="790" y="830" width="200" height="40" as="geometry" />
        </mxCell>
        <mxCell id="Wj7mXiarQjOpk7K_wGuI-22" value="Customer" style="rounded=0;whiteSpace=wrap;html=1;" vertex="1" parent="1">
          <mxGeometry x="470" y="300" width="200" height="40" as="geometry" />
        </mxCell>
        <mxCell id="Wj7mXiarQjOpk7K_wGuI-61" style="edgeStyle=none;curved=1;rounded=0;orthogonalLoop=1;jettySize=auto;html=1;exitX=1;exitY=0.5;exitDx=0;exitDy=0;entryX=0;entryY=0.5;entryDx=0;entryDy=0;fontSize=12;startSize=8;endSize=8;" edge="1" parent="1" source="Wj7mXiarQjOpk7K_wGuI-23" target="Wj7mXiarQjOpk7K_wGuI-35">
          <mxGeometry relative="1" as="geometry" />
        </mxCell>
        <mxCell id="Wj7mXiarQjOpk7K_wGuI-62" style="edgeStyle=none;curved=1;rounded=0;orthogonalLoop=1;jettySize=auto;html=1;exitX=1;exitY=0.25;exitDx=0;exitDy=0;entryX=0;entryY=0.5;entryDx=0;entryDy=0;fontSize=12;startSize=8;endSize=8;" edge="1" parent="1" source="Wj7mXiarQjOpk7K_wGuI-23" target="Wj7mXiarQjOpk7K_wGuI-58">
          <mxGeometry relative="1" as="geometry" />
        </mxCell>
        <mxCell id="Wj7mXiarQjOpk7K_wGuI-23" value="customer_id" style="rounded=0;whiteSpace=wrap;html=1;" vertex="1" parent="1">
          <mxGeometry x="470" y="340" width="200" height="40" as="geometry" />
        </mxCell>
        <mxCell id="Wj7mXiarQjOpk7K_wGuI-24" value="name" style="rounded=0;whiteSpace=wrap;html=1;" vertex="1" parent="1">
          <mxGeometry x="470" y="380" width="200" height="40" as="geometry" />
        </mxCell>
        <mxCell id="Wj7mXiarQjOpk7K_wGuI-25" value="postal_code" style="rounded=0;whiteSpace=wrap;html=1;" vertex="1" parent="1">
          <mxGeometry x="820" y="140" width="200" height="40" as="geometry" />
        </mxCell>
        <mxCell id="Wj7mXiarQjOpk7K_wGuI-26" value="city" style="rounded=0;whiteSpace=wrap;html=1;" vertex="1" parent="1">
          <mxGeometry x="820" y="180" width="200" height="40" as="geometry" />
        </mxCell>
        <mxCell id="Wj7mXiarQjOpk7K_wGuI-27" value="country" style="rounded=0;whiteSpace=wrap;html=1;" vertex="1" parent="1">
          <mxGeometry x="820" y="220" width="200" height="40" as="geometry" />
        </mxCell>
        <mxCell id="Wj7mXiarQjOpk7K_wGuI-28" value="street" style="rounded=0;whiteSpace=wrap;html=1;" vertex="1" parent="1">
          <mxGeometry x="820" y="260" width="200" height="40" as="geometry" />
        </mxCell>
        <mxCell id="Wj7mXiarQjOpk7K_wGuI-29" value="native_language" style="rounded=0;whiteSpace=wrap;html=1;" vertex="1" parent="1">
          <mxGeometry x="470" y="420" width="200" height="40" as="geometry" />
        </mxCell>
        <mxCell id="Wj7mXiarQjOpk7K_wGuI-30" value="territory" style="rounded=0;whiteSpace=wrap;html=1;" vertex="1" parent="1">
          <mxGeometry x="470" y="460" width="200" height="40" as="geometry" />
        </mxCell>
        <mxCell id="Wj7mXiarQjOpk7K_wGuI-31" value="personal_manager" style="rounded=0;whiteSpace=wrap;html=1;" vertex="1" parent="1">
          <mxGeometry x="470" y="500" width="200" height="40" as="geometry" />
        </mxCell>
        <mxCell id="Wj7mXiarQjOpk7K_wGuI-33" value="Order" style="rounded=0;whiteSpace=wrap;html=1;" vertex="1" parent="1">
          <mxGeometry x="780" y="400" width="200" height="40" as="geometry" />
        </mxCell>
        <mxCell id="Wj7mXiarQjOpk7K_wGuI-34" value="order_id" style="rounded=0;whiteSpace=wrap;html=1;" vertex="1" parent="1">
          <mxGeometry x="780" y="440" width="200" height="40" as="geometry" />
        </mxCell>
        <mxCell id="Wj7mXiarQjOpk7K_wGuI-35" value="customer_id" style="rounded=0;whiteSpace=wrap;html=1;" vertex="1" parent="1">
          <mxGeometry x="780" y="480" width="200" height="40" as="geometry" />
        </mxCell>
        <mxCell id="Wj7mXiarQjOpk7K_wGuI-36" value="product_id" style="rounded=0;whiteSpace=wrap;html=1;" vertex="1" parent="1">
          <mxGeometry x="780" y="520" width="200" height="40" as="geometry" />
        </mxCell>
        <mxCell id="Wj7mXiarQjOpk7K_wGuI-37" value="order_date" style="rounded=0;whiteSpace=wrap;html=1;" vertex="1" parent="1">
          <mxGeometry x="780" y="560" width="200" height="40" as="geometry" />
        </mxCell>
        <mxCell id="Wj7mXiarQjOpk7K_wGuI-38" value="method" style="rounded=0;whiteSpace=wrap;html=1;" vertex="1" parent="1">
          <mxGeometry x="780" y="600" width="200" height="40" as="geometry" />
        </mxCell>
        <mxCell id="Wj7mXiarQjOpk7K_wGuI-43" value="language" style="rounded=0;whiteSpace=wrap;html=1;" vertex="1" parent="1">
          <mxGeometry x="460" y="1020" width="200" height="40" as="geometry" />
        </mxCell>
        <mxCell id="Wj7mXiarQjOpk7K_wGuI-45" value="description" style="rounded=0;whiteSpace=wrap;html=1;" vertex="1" parent="1">
          <mxGeometry x="460" y="1060" width="200" height="40" as="geometry" />
        </mxCell>
        <mxCell id="Wj7mXiarQjOpk7K_wGuI-53" value="phone_number" style="rounded=0;whiteSpace=wrap;html=1;" vertex="1" parent="1">
          <mxGeometry x="470" y="540" width="200" height="40" as="geometry" />
        </mxCell>
        <mxCell id="Wj7mXiarQjOpk7K_wGuI-54" value="email" style="rounded=0;whiteSpace=wrap;html=1;" vertex="1" parent="1">
          <mxGeometry x="470" y="580" width="200" height="40" as="geometry" />
        </mxCell>
        <mxCell id="Wj7mXiarQjOpk7K_wGuI-57" value="Customer_location" style="rounded=0;whiteSpace=wrap;html=1;" vertex="1" parent="1">
          <mxGeometry x="820" y="100" width="200" height="40" as="geometry" />
        </mxCell>
        <mxCell id="Wj7mXiarQjOpk7K_wGuI-58" value="customer_id" style="rounded=0;whiteSpace=wrap;html=1;" vertex="1" parent="1">
          <mxGeometry x="820" y="300" width="200" height="40" as="geometry" />
        </mxCell>
      </root>
    </mxGraphModel>
  </diagram>
</mxfile>
